<svg xmlns="http://www.w3.org/2000/svg" xmlns:xlink="http://www.w3.org/1999/xlink" contentStyleType="text/css" height="636px" preserveAspectRatio="none" style="width:1539px;height:636px;background:#FFFFFF;" version="1.1" viewBox="0 0 1539 636" width="1539px" zoomAndPan="magnify"><defs/><g><!--cluster ee434023cf89d7dfb21f63d64f0f9d74--><g id="cluster_ee434023cf89d7dfb21f63d64f0f9d74"><polygon fill="none" points="16,24.15,26,14.15,1095,14.15,1095,517.78,1085,527.78,16,527.78,16,24.15" style="stroke:#181818;stroke-width:1.0;"/><line style="stroke:#181818;stroke-width:1.0;" x1="1085" x2="1095" y1="24.15" y2="14.15"/><line style="stroke:#181818;stroke-width:1.0;" x1="16" x2="1085" y1="24.15" y2="24.15"/><line style="stroke:#181818;stroke-width:1.0;" x1="1085" x2="1085" y1="24.15" y2="527.78"/><text fill="#000000" font-family="sans-serif" font-size="14" font-weight="bold" lengthAdjust="spacing" textLength="44" x="529.5" y="40.1451">Nginx</text></g><!--cluster befdc6572f1384081134503bfbca8aa1--><g id="cluster_befdc6572f1384081134503bfbca8aa1"><polygon fill="none" points="1270,16,1280,6,1522,6,1522,517.78,1512,527.78,1270,527.78,1270,16" style="stroke:#181818;stroke-width:1.0;"/><line style="stroke:#181818;stroke-width:1.0;" x1="1512" x2="1522" y1="16" y2="6"/><line style="stroke:#181818;stroke-width:1.0;" x1="1270" x2="1512" y1="16" y2="16"/><line style="stroke:#181818;stroke-width:1.0;" x1="1512" x2="1512" y1="16" y2="527.78"/><text fill="#000000" font-family="sans-serif" font-size="14" font-weight="bold" lengthAdjust="spacing" textLength="86" x="1349" y="31.9951">Petereport</text></g><!--entity af135dc2d368e0f9da19ddfe0cae8f0a--><g id="elem_af135dc2d368e0f9da19ddfe0cae8f0a"><rect fill="#F1F1F1" height="95.1875" rx="2.5" ry="2.5" style="stroke:#181818;stroke-width:0.5;" width="176" x="648" y="54.15"/><rect fill="#F1F1F1" height="10" style="stroke:#181818;stroke-width:0.5;" width="15" x="804" y="59.15"/><rect fill="#F1F1F1" height="2" style="stroke:#181818;stroke-width:0.5;" width="4" x="802" y="61.15"/><rect fill="#F1F1F1" height="2" style="stroke:#181818;stroke-width:0.5;" width="4" x="802" y="65.15"/><text fill="#000000" font-family="sans-serif" font-size="14" font-weight="bold" lengthAdjust="spacing" textLength="136" x="663" y="87.1451">petereport_nginx</text><text fill="#000000" font-family="sans-serif" font-size="14" lengthAdjust="spacing" textLength="4" x="663" y="103.442">&#160;</text><text fill="#000000" font-family="sans-serif" font-size="14" lengthAdjust="spacing" textLength="88" x="663" y="119.7389">image: nginx</text><text fill="#000000" font-family="sans-serif" font-size="14" lengthAdjust="spacing" textLength="4" x="663" y="136.0357">&#160;</text></g><!--entity 97b04832e42a04c7beb04c21e560b3fb--><g id="elem_97b04832e42a04c7beb04c21e560b3fb"><ellipse cx="916" cy="247.49" fill="#F1F1F1" rx="8" ry="8" style="stroke:#181818;stroke-width:0.5;"/><text fill="#000000" font-family="sans-serif" font-size="14" lengthAdjust="spacing" textLength="18" x="907" y="277.4851">80</text></g><!--entity 3a61031652ff80665f419f821c1ac407--><g id="elem_3a61031652ff80665f419f821c1ac407"><ellipse cx="1042" cy="247.49" fill="#F1F1F1" rx="8" ry="8" style="stroke:#181818;stroke-width:0.5;"/><text fill="#000000" font-family="sans-serif" font-size="14" lengthAdjust="spacing" textLength="27" x="1028.5" y="277.4851">443</text></g><!--entity 9661b4ce661b89d20d4281a3b702bf35--><g id="elem_9661b4ce661b89d20d4281a3b702bf35"><rect fill="#F1F1F1" height="39.2969" rx="2.5" ry="2.5" style="stroke:#181818;stroke-width:0.5;" width="179" x="31.5" y="472.49"/><polygon fill="#F1F1F1" points="193.5,477.49,193.5,491.49,205.5,491.49,205.5,483.49,199.5,477.49,193.5,477.49" style="stroke:#181818;stroke-width:0.5;"/><line style="stroke:#181818;stroke-width:0.5;" x1="199.5" x2="199.5" y1="477.49" y2="483.49"/><line style="stroke:#181818;stroke-width:0.5;" x1="205.5" x2="199.5" y1="483.49" y2="483.49"/><text fill="#000000" font-family="sans-serif" font-size="14" lengthAdjust="spacing" textLength="149" x="41.5" y="498.4851">/opt/petereport/nginx</text></g><!--entity f969cd65c7bc5fa7cdc548c5488113f9--><g id="elem_f969cd65c7bc5fa7cdc548c5488113f9"><rect fill="#F1F1F1" height="39.2969" rx="2.5" ry="2.5" style="stroke:#181818;stroke-width:0.5;" width="260" x="245" y="472.49"/><polygon fill="#F1F1F1" points="488,477.49,488,491.49,500,491.49,500,483.49,494,477.49,488,477.49" style="stroke:#181818;stroke-width:0.5;"/><line style="stroke:#181818;stroke-width:0.5;" x1="494" x2="494" y1="477.49" y2="483.49"/><line style="stroke:#181818;stroke-width:0.5;" x1="500" x2="494" y1="483.49" y2="483.49"/><text fill="#000000" font-family="sans-serif" font-size="14" lengthAdjust="spacing" textLength="230" x="255" y="498.4851">/etc/nginx/conf.d/petereport.conf</text></g><!--entity 40a2e51aff1834cd6770a258fbcbb988--><g id="elem_40a2e51aff1834cd6770a258fbcbb988"><rect fill="#F1F1F1" height="39.2969" rx="2.5" ry="2.5" style="stroke:#181818;stroke-width:0.5;" width="289" x="540.5" y="472.49"/><polygon fill="#F1F1F1" points="812.5,477.49,812.5,491.49,824.5,491.49,824.5,483.49,818.5,477.49,812.5,477.49" style="stroke:#181818;stroke-width:0.5;"/><line style="stroke:#181818;stroke-width:0.5;" x1="818.5" x2="818.5" y1="477.49" y2="483.49"/><line style="stroke:#181818;stroke-width:0.5;" x1="824.5" x2="818.5" y1="483.49" y2="483.49"/><text fill="#000000" font-family="sans-serif" font-size="14" lengthAdjust="spacing" textLength="259" x="550.5" y="498.4851">/opt/petereport/app/petereport/static</text></g><!--entity 1cd33b241f45b61682ffb45dd97e15cf--><g id="elem_1cd33b241f45b61682ffb45dd97e15cf"><rect fill="#F1F1F1" height="39.2969" rx="2.5" ry="2.5" style="stroke:#181818;stroke-width:0.5;" width="215" x="864.5" y="472.49"/><polygon fill="#F1F1F1" points="1062.5,477.49,1062.5,491.49,1074.5,491.49,1074.5,483.49,1068.5,477.49,1062.5,477.49" style="stroke:#181818;stroke-width:0.5;"/><line style="stroke:#181818;stroke-width:0.5;" x1="1068.5" x2="1068.5" y1="477.49" y2="483.49"/><line style="stroke:#181818;stroke-width:0.5;" x1="1074.5" x2="1068.5" y1="483.49" y2="483.49"/><text fill="#000000" font-family="sans-serif" font-size="14" lengthAdjust="spacing" textLength="185" x="874.5" y="498.4851">/opt/petereport/app/media</text></g><!--entity 704062a73fc27ec96c0ded46a67a69ec--><g id="elem_704062a73fc27ec96c0ded46a67a69ec"><rect fill="#F1F1F1" height="111.4844" rx="2.5" ry="2.5" style="stroke:#181818;stroke-width:0.5;" width="219" x="1286.5" y="46"/><rect fill="#F1F1F1" height="10" style="stroke:#181818;stroke-width:0.5;" width="15" x="1485.5" y="51"/><rect fill="#F1F1F1" height="2" style="stroke:#181818;stroke-width:0.5;" width="4" x="1483.5" y="53"/><rect fill="#F1F1F1" height="2" style="stroke:#181818;stroke-width:0.5;" width="4" x="1483.5" y="57"/><text fill="#000000" font-family="sans-serif" font-size="14" font-weight="bold" lengthAdjust="spacing" textLength="146" x="1301.5" y="78.9951">petereport_django</text><text fill="#000000" font-family="sans-serif" font-size="14" lengthAdjust="spacing" textLength="4" x="1301.5" y="95.292">&#160;</text><text fill="#000000" font-family="sans-serif" font-size="14" lengthAdjust="spacing" textLength="179" x="1301.5" y="111.5889">image: petereport_django</text><text fill="#000000" font-family="sans-serif" font-size="14" lengthAdjust="spacing" textLength="163" x="1301.5" y="127.8857">restart: unless-stopped</text><text fill="#000000" font-family="sans-serif" font-size="14" lengthAdjust="spacing" textLength="4" x="1301.5" y="144.1826">&#160;</text></g><!--entity 4e40d275c5488226bdf35e99d1928c41--><g id="elem_4e40d275c5488226bdf35e99d1928c41"><rect fill="#F1F1F1" height="39.2969" rx="2.5" ry="2.5" style="stroke:#181818;stroke-width:0.5;" width="137" x="1327.5" y="472.49"/><polygon fill="#F1F1F1" points="1447.5,477.49,1447.5,491.49,1459.5,491.49,1459.5,483.49,1453.5,477.49,1447.5,477.49" style="stroke:#181818;stroke-width:0.5;"/><line style="stroke:#181818;stroke-width:0.5;" x1="1453.5" x2="1453.5" y1="477.49" y2="483.49"/><line style="stroke:#181818;stroke-width:0.5;" x1="1459.5" x2="1453.5" y1="483.49" y2="483.49"/><text fill="#000000" font-family="sans-serif" font-size="14" lengthAdjust="spacing" textLength="107" x="1337.5" y="498.4851">/opt/petereport</text></g><!--entity dba3f4d0bb5aa6fcfa18da2c1f7a9775--><g id="elem_dba3f4d0bb5aa6fcfa18da2c1f7a9775"><ellipse cx="1138" cy="382.49" fill="#F1F1F1" rx="8" ry="8" style="stroke:#181818;stroke-width:0.5;"/><text fill="#000000" font-family="sans-serif" font-size="14" lengthAdjust="spacing" textLength="18" x="1129" y="412.4851">80</text></g><!--entity 8a81c9bb0ec23d07684c1472053c60fe--><g id="elem_8a81c9bb0ec23d07684c1472053c60fe"><ellipse cx="1227" cy="382.49" fill="#F1F1F1" rx="8" ry="8" style="stroke:#181818;stroke-width:0.5;"/><text fill="#000000" font-family="sans-serif" font-size="14" lengthAdjust="spacing" textLength="27" x="1213.5" y="412.4851">443</text></g><!--entity 160eeec9a8aa24ba030c792f06f67d69--><g id="elem_160eeec9a8aa24ba030c792f06f67d69"><rect fill="#F1F1F1" height="39.2969" rx="2.5" ry="2.5" style="stroke:#181818;stroke-width:0.5;" width="76" x="83" y="590.78"/><polygon fill="#F1F1F1" points="142,595.78,142,609.78,154,609.78,154,601.78,148,595.78,142,595.78" style="stroke:#181818;stroke-width:0.5;"/><line style="stroke:#181818;stroke-width:0.5;" x1="148" x2="148" y1="595.78" y2="601.78"/><line style="stroke:#181818;stroke-width:0.5;" x1="154" x2="148" y1="601.78" y2="601.78"/><text fill="#000000" font-family="sans-serif" font-size="14" lengthAdjust="spacing" textLength="46" x="93" y="616.7751">./nginx</text></g><!--entity a06df34e9a009aeb3d493171cab7cc32--><g id="elem_a06df34e9a009aeb3d493171cab7cc32"><rect fill="#F1F1F1" height="39.2969" rx="2.5" ry="2.5" style="stroke:#181818;stroke-width:0.5;" width="189" x="280.5" y="590.78"/><polygon fill="#F1F1F1" points="452.5,595.78,452.5,609.78,464.5,609.78,464.5,601.78,458.5,595.78,452.5,595.78" style="stroke:#181818;stroke-width:0.5;"/><line style="stroke:#181818;stroke-width:0.5;" x1="458.5" x2="458.5" y1="595.78" y2="601.78"/><line style="stroke:#181818;stroke-width:0.5;" x1="464.5" x2="458.5" y1="601.78" y2="601.78"/><text fill="#000000" font-family="sans-serif" font-size="14" lengthAdjust="spacing" textLength="159" x="290.5" y="616.7751">./nginx/petereport.conf</text></g><!--entity 31f35b71a81f398b80849dc5c1de67f4--><g id="elem_31f35b71a81f398b80849dc5c1de67f4"><rect fill="#F1F1F1" height="39.2969" rx="2.5" ry="2.5" style="stroke:#181818;stroke-width:0.5;" width="186" x="592" y="590.78"/><polygon fill="#F1F1F1" points="761,595.78,761,609.78,773,609.78,773,601.78,767,595.78,761,595.78" style="stroke:#181818;stroke-width:0.5;"/><line style="stroke:#181818;stroke-width:0.5;" x1="767" x2="767" y1="595.78" y2="601.78"/><line style="stroke:#181818;stroke-width:0.5;" x1="773" x2="767" y1="601.78" y2="601.78"/><text fill="#000000" font-family="sans-serif" font-size="14" lengthAdjust="spacing" textLength="156" x="602" y="616.7751">./app/petereport/static</text></g><!--entity 7f8f41ddd636c4cb9faabe8db1ce0dae--><g id="elem_7f8f41ddd636c4cb9faabe8db1ce0dae"><rect fill="#F1F1F1" height="39.2969" rx="2.5" ry="2.5" style="stroke:#181818;stroke-width:0.5;" width="112" x="916" y="590.78"/><polygon fill="#F1F1F1" points="1011,595.78,1011,609.78,1023,609.78,1023,601.78,1017,595.78,1011,595.78" style="stroke:#181818;stroke-width:0.5;"/><line style="stroke:#181818;stroke-width:0.5;" x1="1017" x2="1017" y1="595.78" y2="601.78"/><line style="stroke:#181818;stroke-width:0.5;" x1="1023" x2="1017" y1="601.78" y2="601.78"/><text fill="#000000" font-family="sans-serif" font-size="14" lengthAdjust="spacing" textLength="82" x="926" y="616.7751">./app/media</text></g><!--entity 58b9e70b65a77700ba66e9c64d6b9f89--><g id="elem_58b9e70b65a77700ba66e9c64d6b9f89"><rect fill="#F1F1F1" height="39.2969" rx="2.5" ry="2.5" style="stroke:#181818;stroke-width:0.5;" width="34" x="1379" y="590.78"/><polygon fill="#F1F1F1" points="1396,595.78,1396,609.78,1408,609.78,1408,601.78,1402,595.78,1396,595.78" style="stroke:#181818;stroke-width:0.5;"/><line style="stroke:#181818;stroke-width:0.5;" x1="1402" x2="1402" y1="595.78" y2="601.78"/><line style="stroke:#181818;stroke-width:0.5;" x1="1408" x2="1402" y1="601.78" y2="601.78"/><text fill="#000000" font-family="sans-serif" font-size="14" lengthAdjust="spacing" textLength="4" x="1389" y="616.7751">.</text></g><!--link af135dc2d368e0f9da19ddfe0cae8f0a to 97b04832e42a04c7beb04c21e560b3fb--><g id="link_af135dc2d368e0f9da19ddfe0cae8f0a_97b04832e42a04c7beb04c21e560b3fb"><path codeLine="33" d="M794.94,149.81 C835.95,182.56 886.77,223.15 907.04,239.33 " fill="none" id="af135dc2d368e0f9da19ddfe0cae8f0a-97b04832e42a04c7beb04c21e560b3fb" style="stroke:#181818;stroke-width:1.0;"/></g><!--link 97b04832e42a04c7beb04c21e560b3fb to dba3f4d0bb5aa6fcfa18da2c1f7a9775--><g id="link_97b04832e42a04c7beb04c21e560b3fb_dba3f4d0bb5aa6fcfa18da2c1f7a9775"><path codeLine="34" d="M924.65,253.37 C950.67,268.1 1030.34,313.5 1095,353.49 C1106.97,360.89 1120.55,369.82 1129.18,375.57 " fill="none" id="97b04832e42a04c7beb04c21e560b3fb-dba3f4d0bb5aa6fcfa18da2c1f7a9775" style="stroke:#181818;stroke-width:1.0;"/></g><!--link af135dc2d368e0f9da19ddfe0cae8f0a to 3a61031652ff80665f419f821c1ac407--><g id="link_af135dc2d368e0f9da19ddfe0cae8f0a_3a61031652ff80665f419f821c1ac407"><path codeLine="35" d="M824.1,144.13 C900.37,179.96 1003.06,228.19 1033.29,242.39 " fill="none" id="af135dc2d368e0f9da19ddfe0cae8f0a-3a61031652ff80665f419f821c1ac407" style="stroke:#181818;stroke-width:1.0;"/></g><!--link 3a61031652ff80665f419f821c1ac407 to 8a81c9bb0ec23d07684c1472053c60fe--><g id="link_3a61031652ff80665f419f821c1ac407_8a81c9bb0ec23d07684c1472053c60fe"><path codeLine="36" d="M1050.77,252.5 C1069.22,261.11 1113.04,282.56 1146,306.49 C1175.78,328.1 1206.45,359.48 1219.93,373.82 " fill="none" id="3a61031652ff80665f419f821c1ac407-8a81c9bb0ec23d07684c1472053c60fe" style="stroke:#181818;stroke-width:1.0;"/></g><!--link 9661b4ce661b89d20d4281a3b702bf35 to 160eeec9a8aa24ba030c792f06f67d69--><g id="link_9661b4ce661b89d20d4281a3b702bf35_160eeec9a8aa24ba030c792f06f67d69"><path codeLine="37" d="M121,512.08 C121,533.7 121,568.87 121,590.5 " fill="none" id="9661b4ce661b89d20d4281a3b702bf35-160eeec9a8aa24ba030c792f06f67d69" style="stroke:#181818;stroke-width:1.0;"/><text fill="#000000" font-family="sans-serif" font-size="13" lengthAdjust="spacing" textLength="14" x="122" y="556.8469">rw</text></g><!--link af135dc2d368e0f9da19ddfe0cae8f0a to 9661b4ce661b89d20d4281a3b702bf35--><g id="link_af135dc2d368e0f9da19ddfe0cae8f0a_9661b4ce661b89d20d4281a3b702bf35"><path codeLine="38" d="M661.51,149.79 C525.76,235.52 248.6331,410.5362 156.1431,468.9462 " fill="none" id="af135dc2d368e0f9da19ddfe0cae8f0a-to-9661b4ce661b89d20d4281a3b702bf35" style="stroke:#181818;stroke-width:1.0;stroke-dasharray:7.0,7.0;"/><polygon fill="#181818" points="151.07,472.15,160.8154,470.7264,155.2975,469.4802,156.5437,463.9623,151.07,472.15" style="stroke:#181818;stroke-width:1.0;"/><text fill="#000000" font-family="sans-serif" font-size="13" lengthAdjust="spacing" textLength="23" x="413" y="319.5569">use</text></g><!--link f969cd65c7bc5fa7cdc548c5488113f9 to a06df34e9a009aeb3d493171cab7cc32--><g id="link_f969cd65c7bc5fa7cdc548c5488113f9_a06df34e9a009aeb3d493171cab7cc32"><path codeLine="39" d="M375,512.08 C375,533.7 375,568.87 375,590.5 " fill="none" id="f969cd65c7bc5fa7cdc548c5488113f9-a06df34e9a009aeb3d493171cab7cc32" style="stroke:#181818;stroke-width:1.0;"/><text fill="#000000" font-family="sans-serif" font-size="13" lengthAdjust="spacing" textLength="14" x="376" y="556.8469">rw</text></g><!--link af135dc2d368e0f9da19ddfe0cae8f0a to f969cd65c7bc5fa7cdc548c5488113f9--><g id="link_af135dc2d368e0f9da19ddfe0cae8f0a_f969cd65c7bc5fa7cdc548c5488113f9"><path codeLine="40" d="M692.45,149.59 C612.76,235.34 450.7148,409.6752 396.5648,467.9352 " fill="none" id="af135dc2d368e0f9da19ddfe0cae8f0a-to-f969cd65c7bc5fa7cdc548c5488113f9" style="stroke:#181818;stroke-width:1.0;stroke-dasharray:7.0,7.0;"/><polygon fill="#181818" points="392.48,472.33,401.5371,468.461,395.884,468.6676,395.6773,463.0146,392.48,472.33" style="stroke:#181818;stroke-width:1.0;"/><text fill="#000000" font-family="sans-serif" font-size="13" lengthAdjust="spacing" textLength="23" x="547" y="319.5569">use</text></g><!--link 40a2e51aff1834cd6770a258fbcbb988 to 31f35b71a81f398b80849dc5c1de67f4--><g id="link_40a2e51aff1834cd6770a258fbcbb988_31f35b71a81f398b80849dc5c1de67f4"><path codeLine="41" d="M685,512.08 C685,533.7 685,568.87 685,590.5 " fill="none" id="40a2e51aff1834cd6770a258fbcbb988-31f35b71a81f398b80849dc5c1de67f4" style="stroke:#181818;stroke-width:1.0;"/><text fill="#000000" font-family="sans-serif" font-size="13" lengthAdjust="spacing" textLength="14" x="686" y="556.8469">rw</text></g><!--link af135dc2d368e0f9da19ddfe0cae8f0a to 40a2e51aff1834cd6770a258fbcbb988--><g id="link_af135dc2d368e0f9da19ddfe0cae8f0a_40a2e51aff1834cd6770a258fbcbb988"><path codeLine="42" d="M729.85,149.59 C718.59,235.34 695.9011,408.1211 688.2511,466.3811 " fill="none" id="af135dc2d368e0f9da19ddfe0cae8f0a-to-40a2e51aff1834cd6770a258fbcbb988" style="stroke:#181818;stroke-width:1.0;stroke-dasharray:7.0,7.0;"/><polygon fill="#181818" points="687.47,472.33,692.6077,463.9274,688.121,467.3726,684.6758,462.8858,687.47,472.33" style="stroke:#181818;stroke-width:1.0;"/><text fill="#000000" font-family="sans-serif" font-size="13" lengthAdjust="spacing" textLength="23" x="710" y="319.5569">use</text></g><!--link 1cd33b241f45b61682ffb45dd97e15cf to 7f8f41ddd636c4cb9faabe8db1ce0dae--><g id="link_1cd33b241f45b61682ffb45dd97e15cf_7f8f41ddd636c4cb9faabe8db1ce0dae"><path codeLine="43" d="M972,512.08 C972,533.7 972,568.87 972,590.5 " fill="none" id="1cd33b241f45b61682ffb45dd97e15cf-7f8f41ddd636c4cb9faabe8db1ce0dae" style="stroke:#181818;stroke-width:1.0;"/><text fill="#000000" font-family="sans-serif" font-size="13" lengthAdjust="spacing" textLength="14" x="973" y="556.8469">rw</text></g><!--link af135dc2d368e0f9da19ddfe0cae8f0a to 1cd33b241f45b61682ffb45dd97e15cf--><g id="link_af135dc2d368e0f9da19ddfe0cae8f0a_1cd33b241f45b61682ffb45dd97e15cf"><path codeLine="44" d="M764.47,149.59 C816.57,235.34 922.0543,408.9424 957.4543,467.2024 " fill="none" id="af135dc2d368e0f9da19ddfe0cae8f0a-to-1cd33b241f45b61682ffb45dd97e15cf" style="stroke:#181818;stroke-width:1.0;stroke-dasharray:7.0,7.0;"/><polygon fill="#181818" points="960.57,472.33,959.3149,462.5614,957.9736,468.057,952.4781,466.7157,960.57,472.33" style="stroke:#181818;stroke-width:1.0;"/><text fill="#000000" font-family="sans-serif" font-size="13" lengthAdjust="spacing" textLength="23" x="870" y="319.5569">use</text></g><!--link 4e40d275c5488226bdf35e99d1928c41 to 58b9e70b65a77700ba66e9c64d6b9f89--><g id="link_4e40d275c5488226bdf35e99d1928c41_58b9e70b65a77700ba66e9c64d6b9f89"><path codeLine="45" d="M1396,512.08 C1396,533.7 1396,568.87 1396,590.5 " fill="none" id="4e40d275c5488226bdf35e99d1928c41-58b9e70b65a77700ba66e9c64d6b9f89" style="stroke:#181818;stroke-width:1.0;"/><text fill="#000000" font-family="sans-serif" font-size="13" lengthAdjust="spacing" textLength="14" x="1397" y="556.8469">rw</text></g><!--link 704062a73fc27ec96c0ded46a67a69ec to 4e40d275c5488226bdf35e99d1928c41--><g id="link_704062a73fc27ec96c0ded46a67a69ec_4e40d275c5488226bdf35e99d1928c41"><path codeLine="46" d="M1396,157.98 C1396,246.36 1396,409.37 1396,466.06 " fill="none" id="704062a73fc27ec96c0ded46a67a69ec-to-4e40d275c5488226bdf35e99d1928c41" style="stroke:#181818;stroke-width:1.0;stroke-dasharray:7.0,7.0;"/><polygon fill="#181818" points="1396,472.06,1400,463.06,1396,467.06,1392,463.06,1396,472.06" style="stroke:#181818;stroke-width:1.0;"/><text fill="#000000" font-family="sans-serif" font-size="13" lengthAdjust="spacing" textLength="23" x="1397" y="319.5569">use</text></g><!--SRC=[bLNBRXiv4BpFLmnqoXgmp6UJz26V4EmzM2oQ_J0Ks3E2D442BFRVmnd7ZhpUXF5144XrLrTr5rjuVpz_UJXyFKntmpIpZBiFTuVfwsx4yoWIV33Ea-R2YRKwg-0PWXfj5s7yPnXfVZZEaqpBY6fzP7Bi8SiQWBOmgnX2oMfm_3XSNHrbaPCSvzFozxJMkReQXiC3tidjk9s7uQ_XtH_ZBfkDGKdLXEoT18ScKAhIpkIiH33LQzrYG_1Ri4Umnbk8JZKRWAZ15itEaaKA9WruMWwAj8oxc_cutFpWSZCzQou0jWQIzQkfTeQ3onPzJSPLzV4IH1PwpBoXUT8zNo3krviDK0iKOeYDF4N5H4mnvFMJhVLQVi4AZyVButd1vK0RQ33e95fKjTc71fzIkubPAzLQSkw0FWWVS0EonDvN5wo6MC52Rhsh8JAN93QI3lz-TyMVpmXRNXLbWfXS6teEPfKIel6r4S2CQ5zQ8vbWm67oIYu95I33mW4G4a8H-gyr-1DET_E5DrxzDfoajUEqt8wVftivdw_Fotmy2g_- -QdsnzP9CEnIt2RW75HkKvLIs1QNATYc-CA0ND5hO5DhH0GbHPiP7LbDM5AABmoOCLigjHeXvzaao85iICv4Js1KBfZjBondmOYqhgoDSw6YyOPISMf08J6Krsd_QpGqqAG4AMXCGQcUG_4sMSAQYBnx0VDpQtdR-b6JRLhKbropoQ4qpv9bWQJX5SmFCoNDxSanCtYWGBKeOfNCrP8OnXVwjuIOQv5aAaHCpS6c8e0KWi3GadDJtjifrtpTNnAzW0sbE-dVujBTGRs03QLhfDwMsb1wlXflnztfowulRB_d_VvzTpMkU9_FiXjwAszZrxFhMzbrYpwnw-tEnpbsNi5RsNMBFh7hBUIDNU-XlPLTj-XpxphBSsFNUzLFxBh_2a-zwnNzpkuR]--></g></svg>