<svg xmlns="http://www.w3.org/2000/svg" xmlns:xlink="http://www.w3.org/1999/xlink" contentStyleType="text/css" height="574px" preserveAspectRatio="none" style="width:1206px;height:574px;background:#FFFFFF;" version="1.1" viewBox="0 0 1206 574" width="1206px" zoomAndPan="magnify"><defs/><g><!--cluster ad30a9543f5a9d1b8bc124a9cd8fb6fd--><g id="cluster_ad30a9543f5a9d1b8bc124a9cd8fb6fd"><path d="M804.5,6 L896.5,6 A3.75,3.75 0 0 1 899,8.5 L906,28.2969 L906.5,28.2969 A2.5,2.5 0 0 1 909,30.7969 L909,133.39 A2.5,2.5 0 0 1 906.5,135.89 L804.5,135.89 A2.5,2.5 0 0 1 802,133.39 L802,8.5 A2.5,2.5 0 0 1 804.5,6 " fill="none" style="stroke:#000000;stroke-width:1.5;"/><line style="stroke:#000000;stroke-width:1.5;" x1="802" x2="906" y1="28.2969" y2="28.2969"/><text fill="#000000" font-family="sans-serif" font-size="14" font-weight="bold" lengthAdjust="spacing" textLength="91" x="806" y="20.9951">petereport/</text></g><!--cluster 70f97c07b7b1c066252eaad7e41c0aff--><g id="cluster_70f97c07b7b1c066252eaad7e41c0aff"><path d="M107.5,159.89 L173.5,159.89 A3.75,3.75 0 0 1 176,162.39 L183,182.1869 L942.5,182.1869 A2.5,2.5 0 0 1 945,184.6869 L945,565.06 A2.5,2.5 0 0 1 942.5,567.56 L107.5,567.56 A2.5,2.5 0 0 1 105,565.06 L105,162.39 A2.5,2.5 0 0 1 107.5,159.89 " fill="none" style="stroke:#000000;stroke-width:1.5;"/><line style="stroke:#000000;stroke-width:1.5;" x1="105" x2="183" y1="182.1869" y2="182.1869"/><text fill="#000000" font-family="sans-serif" font-size="14" font-weight="bold" lengthAdjust="spacing" textLength="65" x="109" y="174.8851">preport/</text></g><!--cluster cd80215e5e39f427bd6d8a9569d7fc0a--><g id="cluster_cd80215e5e39f427bd6d8a9569d7fc0a"><path d="M131.5,298.78 L240.5,298.78 A3.75,3.75 0 0 1 243,301.28 L250,321.0769 L280.5,321.0769 A2.5,2.5 0 0 1 283,323.5769 L283,426.17 A2.5,2.5 0 0 1 280.5,428.67 L131.5,428.67 A2.5,2.5 0 0 1 129,426.17 L129,301.28 A2.5,2.5 0 0 1 131.5,298.78 " fill="none" style="stroke:#000000;stroke-width:1.5;"/><line style="stroke:#000000;stroke-width:1.5;" x1="129" x2="250" y1="321.0769" y2="321.0769"/><text fill="#000000" font-family="sans-serif" font-size="14" font-weight="bold" lengthAdjust="spacing" textLength="108" x="133" y="313.7751">templatetags/</text></g><!--entity 12166bdcbdfd691a1b2fe2ab2221deb5--><g id="elem_12166bdcbdfd691a1b2fe2ab2221deb5"><rect fill="#F1F1F1" height="78.8906" rx="2.5" ry="2.5" style="stroke:#181818;stroke-width:0.5;" width="70" x="820" y="41"/><rect fill="#F1F1F1" height="10" style="stroke:#181818;stroke-width:0.5;" width="15" x="870" y="46"/><rect fill="#F1F1F1" height="2" style="stroke:#181818;stroke-width:0.5;" width="4" x="868" y="48"/><rect fill="#F1F1F1" height="2" style="stroke:#181818;stroke-width:0.5;" width="4" x="868" y="52"/><text fill="#000000" font-family="sans-serif" font-size="14" font-weight="bold" lengthAdjust="spacing" textLength="30" x="835" y="73.9951">urls</text><text fill="#000000" font-family="sans-serif" font-size="14" lengthAdjust="spacing" textLength="4" x="835" y="90.292">&#160;</text><text fill="#000000" font-family="sans-serif" font-size="14" lengthAdjust="spacing" textLength="4" x="835" y="106.5889">&#160;</text></g><!--entity b4b9aae9cf5e71ea57afdd1f9bcd79bc--><g id="elem_b4b9aae9cf5e71ea57afdd1f9bcd79bc"><rect fill="#F1F1F1" height="78.8906" rx="2.5" ry="2.5" style="stroke:#181818;stroke-width:0.5;" width="127" x="536.5" y="333.78"/><rect fill="#F1F1F1" height="10" style="stroke:#181818;stroke-width:0.5;" width="15" x="643.5" y="338.78"/><rect fill="#F1F1F1" height="2" style="stroke:#181818;stroke-width:0.5;" width="4" x="641.5" y="340.78"/><rect fill="#F1F1F1" height="2" style="stroke:#181818;stroke-width:0.5;" width="4" x="641.5" y="344.78"/><text fill="#000000" font-family="sans-serif" font-size="14" font-weight="bold" lengthAdjust="spacing" textLength="87" x="551.5" y="366.7751">decorators</text><text fill="#000000" font-family="sans-serif" font-size="14" lengthAdjust="spacing" textLength="4" x="551.5" y="383.072">&#160;</text><text fill="#000000" font-family="sans-serif" font-size="14" lengthAdjust="spacing" textLength="4" x="551.5" y="399.3689">&#160;</text></g><!--entity c6ded3bc2125d83db5f905ca1e72b22b--><g id="elem_c6ded3bc2125d83db5f905ca1e72b22b"><rect fill="#F1F1F1" height="78.8906" rx="2.5" ry="2.5" style="stroke:#181818;stroke-width:0.5;" width="86" x="698" y="333.78"/><rect fill="#F1F1F1" height="10" style="stroke:#181818;stroke-width:0.5;" width="15" x="764" y="338.78"/><rect fill="#F1F1F1" height="2" style="stroke:#181818;stroke-width:0.5;" width="4" x="762" y="340.78"/><rect fill="#F1F1F1" height="2" style="stroke:#181818;stroke-width:0.5;" width="4" x="762" y="344.78"/><text fill="#000000" font-family="sans-serif" font-size="14" font-weight="bold" lengthAdjust="spacing" textLength="46" x="713" y="366.7751">forms</text><text fill="#000000" font-family="sans-serif" font-size="14" lengthAdjust="spacing" textLength="4" x="713" y="383.072">&#160;</text><text fill="#000000" font-family="sans-serif" font-size="14" lengthAdjust="spacing" textLength="4" x="713" y="399.3689">&#160;</text></g><!--entity f978d060622eab3b699b00059959bee3--><g id="elem_f978d060622eab3b699b00059959bee3"><rect fill="#F1F1F1" height="78.8906" rx="2.5" ry="2.5" style="stroke:#181818;stroke-width:0.5;" width="70" x="306" y="194.89"/><rect fill="#F1F1F1" height="10" style="stroke:#181818;stroke-width:0.5;" width="15" x="356" y="199.89"/><rect fill="#F1F1F1" height="2" style="stroke:#181818;stroke-width:0.5;" width="4" x="354" y="201.89"/><rect fill="#F1F1F1" height="2" style="stroke:#181818;stroke-width:0.5;" width="4" x="354" y="205.89"/><text fill="#000000" font-family="sans-serif" font-size="14" font-weight="bold" lengthAdjust="spacing" textLength="30" x="321" y="227.8851">urls</text><text fill="#000000" font-family="sans-serif" font-size="14" lengthAdjust="spacing" textLength="4" x="321" y="244.182">&#160;</text><text fill="#000000" font-family="sans-serif" font-size="14" lengthAdjust="spacing" textLength="4" x="321" y="260.4789">&#160;</text></g><!--entity e75fc091a55c8b049be8953eb3b7ab7a--><g id="elem_e75fc091a55c8b049be8953eb3b7ab7a"><rect fill="#F1F1F1" height="78.8906" rx="2.5" ry="2.5" style="stroke:#181818;stroke-width:0.5;" width="73" x="818.5" y="333.78"/><rect fill="#F1F1F1" height="10" style="stroke:#181818;stroke-width:0.5;" width="15" x="871.5" y="338.78"/><rect fill="#F1F1F1" height="2" style="stroke:#181818;stroke-width:0.5;" width="4" x="869.5" y="340.78"/><rect fill="#F1F1F1" height="2" style="stroke:#181818;stroke-width:0.5;" width="4" x="869.5" y="344.78"/><text fill="#000000" font-family="sans-serif" font-size="14" font-weight="bold" lengthAdjust="spacing" textLength="33" x="833.5" y="366.7751">utils</text><text fill="#000000" font-family="sans-serif" font-size="14" lengthAdjust="spacing" textLength="4" x="833.5" y="383.072">&#160;</text><text fill="#000000" font-family="sans-serif" font-size="14" lengthAdjust="spacing" textLength="4" x="833.5" y="399.3689">&#160;</text></g><!--entity cda11f564f15e021dd74685bba6657d5--><g id="elem_cda11f564f15e021dd74685bba6657d5"><rect fill="#F1F1F1" height="78.8906" rx="2.5" ry="2.5" style="stroke:#181818;stroke-width:0.5;" width="86" x="812" y="194.89"/><rect fill="#F1F1F1" height="10" style="stroke:#181818;stroke-width:0.5;" width="15" x="878" y="199.89"/><rect fill="#F1F1F1" height="2" style="stroke:#181818;stroke-width:0.5;" width="4" x="876" y="201.89"/><rect fill="#F1F1F1" height="2" style="stroke:#181818;stroke-width:0.5;" width="4" x="876" y="205.89"/><text fill="#000000" font-family="sans-serif" font-size="14" font-weight="bold" lengthAdjust="spacing" textLength="46" x="827" y="227.8851">views</text><text fill="#000000" font-family="sans-serif" font-size="14" lengthAdjust="spacing" textLength="4" x="827" y="244.182">&#160;</text><text fill="#000000" font-family="sans-serif" font-size="14" lengthAdjust="spacing" textLength="4" x="827" y="260.4789">&#160;</text></g><!--entity 2e0f2d41f34c5764b46a8c45c3bc30ca--><g id="elem_2e0f2d41f34c5764b46a8c45c3bc30ca"><rect fill="#F1F1F1" height="78.8906" rx="2.5" ry="2.5" style="stroke:#181818;stroke-width:0.5;" width="80" x="411" y="194.89"/><rect fill="#F1F1F1" height="10" style="stroke:#181818;stroke-width:0.5;" width="15" x="471" y="199.89"/><rect fill="#F1F1F1" height="2" style="stroke:#181818;stroke-width:0.5;" width="4" x="469" y="201.89"/><rect fill="#F1F1F1" height="2" style="stroke:#181818;stroke-width:0.5;" width="4" x="469" y="205.89"/><text fill="#000000" font-family="sans-serif" font-size="14" font-weight="bold" lengthAdjust="spacing" textLength="40" x="426" y="227.8851">tests</text><text fill="#000000" font-family="sans-serif" font-size="14" lengthAdjust="spacing" textLength="4" x="426" y="244.182">&#160;</text><text fill="#000000" font-family="sans-serif" font-size="14" lengthAdjust="spacing" textLength="4" x="426" y="260.4789">&#160;</text></g><!--entity 794a39bb747fcc953222aa69ccc981ac--><g id="elem_794a39bb747fcc953222aa69ccc981ac"><rect fill="#F1F1F1" height="78.8906" rx="2.5" ry="2.5" style="stroke:#181818;stroke-width:0.5;" width="78" x="302" y="333.78"/><rect fill="#F1F1F1" height="10" style="stroke:#181818;stroke-width:0.5;" width="15" x="360" y="338.78"/><rect fill="#F1F1F1" height="2" style="stroke:#181818;stroke-width:0.5;" width="4" x="358" y="340.78"/><rect fill="#F1F1F1" height="2" style="stroke:#181818;stroke-width:0.5;" width="4" x="358" y="344.78"/><text fill="#000000" font-family="sans-serif" font-size="14" font-weight="bold" lengthAdjust="spacing" textLength="38" x="317" y="366.7751">apps</text><text fill="#000000" font-family="sans-serif" font-size="14" lengthAdjust="spacing" textLength="4" x="317" y="383.072">&#160;</text><text fill="#000000" font-family="sans-serif" font-size="14" lengthAdjust="spacing" textLength="4" x="317" y="399.3689">&#160;</text></g><!--entity 622a8a85fd4edeb835f98d94f2df2621--><g id="elem_622a8a85fd4edeb835f98d94f2df2621"><rect fill="#F1F1F1" height="78.8906" rx="2.5" ry="2.5" style="stroke:#181818;stroke-width:0.5;" width="97" x="424.5" y="472.67"/><rect fill="#F1F1F1" height="10" style="stroke:#181818;stroke-width:0.5;" width="15" x="501.5" y="477.67"/><rect fill="#F1F1F1" height="2" style="stroke:#181818;stroke-width:0.5;" width="4" x="499.5" y="479.67"/><rect fill="#F1F1F1" height="2" style="stroke:#181818;stroke-width:0.5;" width="4" x="499.5" y="483.67"/><text fill="#000000" font-family="sans-serif" font-size="14" font-weight="bold" lengthAdjust="spacing" textLength="57" x="439.5" y="505.6651">models</text><text fill="#000000" font-family="sans-serif" font-size="14" lengthAdjust="spacing" textLength="4" x="439.5" y="521.962">&#160;</text><text fill="#000000" font-family="sans-serif" font-size="14" lengthAdjust="spacing" textLength="4" x="439.5" y="538.2589">&#160;</text></g><!--entity 9527ecf221852c478a7a2b8366d84fc9--><g id="elem_9527ecf221852c478a7a2b8366d84fc9"><rect fill="#F1F1F1" height="78.8906" rx="2.5" ry="2.5" style="stroke:#181818;stroke-width:0.5;" width="87" x="414.5" y="333.78"/><rect fill="#F1F1F1" height="10" style="stroke:#181818;stroke-width:0.5;" width="15" x="481.5" y="338.78"/><rect fill="#F1F1F1" height="2" style="stroke:#181818;stroke-width:0.5;" width="4" x="479.5" y="340.78"/><rect fill="#F1F1F1" height="2" style="stroke:#181818;stroke-width:0.5;" width="4" x="479.5" y="344.78"/><text fill="#000000" font-family="sans-serif" font-size="14" font-weight="bold" lengthAdjust="spacing" textLength="47" x="429.5" y="366.7751">admin</text><text fill="#000000" font-family="sans-serif" font-size="14" lengthAdjust="spacing" textLength="4" x="429.5" y="383.072">&#160;</text><text fill="#000000" font-family="sans-serif" font-size="14" lengthAdjust="spacing" textLength="4" x="429.5" y="399.3689">&#160;</text></g><!--entity 245476243ce2d7b3c61801c5449c0365--><g id="elem_245476243ce2d7b3c61801c5449c0365"><rect fill="#F1F1F1" height="78.8906" rx="2.5" ry="2.5" style="stroke:#181818;stroke-width:0.5;" width="122" x="145" y="333.78"/><rect fill="#F1F1F1" height="10" style="stroke:#181818;stroke-width:0.5;" width="15" x="247" y="338.78"/><rect fill="#F1F1F1" height="2" style="stroke:#181818;stroke-width:0.5;" width="4" x="245" y="340.78"/><rect fill="#F1F1F1" height="2" style="stroke:#181818;stroke-width:0.5;" width="4" x="245" y="344.78"/><text fill="#000000" font-family="sans-serif" font-size="14" font-weight="bold" lengthAdjust="spacing" textLength="82" x="160" y="366.7751">app_filters</text><text fill="#000000" font-family="sans-serif" font-size="14" lengthAdjust="spacing" textLength="4" x="160" y="383.072">&#160;</text><text fill="#000000" font-family="sans-serif" font-size="14" lengthAdjust="spacing" textLength="4" x="160" y="399.3689">&#160;</text></g><!--entity f42889983198cedaf167f2ad3d0df53f--><g id="elem_f42889983198cedaf167f2ad3d0df53f"><rect fill="#F1F1F1" height="78.8906" rx="2.5" ry="2.5" style="stroke:#181818;stroke-width:0.5;" width="82" x="7" y="333.78"/><rect fill="#F1F1F1" height="10" style="stroke:#181818;stroke-width:0.5;" width="15" x="69" y="338.78"/><rect fill="#F1F1F1" height="2" style="stroke:#181818;stroke-width:0.5;" width="4" x="67" y="340.78"/><rect fill="#F1F1F1" height="2" style="stroke:#181818;stroke-width:0.5;" width="4" x="67" y="344.78"/><text fill="#000000" font-family="sans-serif" font-size="14" font-weight="bold" lengthAdjust="spacing" textLength="42" x="22" y="366.7751">clean</text><text fill="#000000" font-family="sans-serif" font-size="14" lengthAdjust="spacing" textLength="4" x="22" y="383.072">&#160;</text><text fill="#000000" font-family="sans-serif" font-size="14" lengthAdjust="spacing" textLength="4" x="22" y="399.3689">&#160;</text></g><!--entity bed2f1a49b2cdd5125bb7106e00690f7--><g id="elem_bed2f1a49b2cdd5125bb7106e00690f7"><rect fill="#F1F1F1" height="78.8906" rx="2.5" ry="2.5" style="stroke:#181818;stroke-width:0.5;" width="151" x="1006.5" y="194.89"/><rect fill="#F1F1F1" height="10" style="stroke:#181818;stroke-width:0.5;" width="15" x="1137.5" y="199.89"/><rect fill="#F1F1F1" height="2" style="stroke:#181818;stroke-width:0.5;" width="4" x="1135.5" y="201.89"/><rect fill="#F1F1F1" height="2" style="stroke:#181818;stroke-width:0.5;" width="4" x="1135.5" y="205.89"/><text fill="#000000" font-family="sans-serif" font-size="14" font-weight="bold" lengthAdjust="spacing" textLength="111" x="1021.5" y="227.8851">config/startup</text><text fill="#000000" font-family="sans-serif" font-size="14" lengthAdjust="spacing" textLength="4" x="1021.5" y="244.182">&#160;</text><text fill="#000000" font-family="sans-serif" font-size="14" lengthAdjust="spacing" textLength="4" x="1021.5" y="260.4789">&#160;</text></g><!--entity 3dd438b6fa15642947cf714f8dc45511--><g id="elem_3dd438b6fa15642947cf714f8dc45511"><rect fill="#F1F1F1" height="78.8906" rx="2.5" ry="2.5" style="stroke:#181818;stroke-width:0.5;" width="236" x="964" y="333.78"/><rect fill="#F1F1F1" height="10" style="stroke:#181818;stroke-width:0.5;" width="15" x="1180" y="338.78"/><rect fill="#F1F1F1" height="2" style="stroke:#181818;stroke-width:0.5;" width="4" x="1178" y="340.78"/><rect fill="#F1F1F1" height="2" style="stroke:#181818;stroke-width:0.5;" width="4" x="1178" y="344.78"/><text fill="#000000" font-family="sans-serif" font-size="14" font-weight="bold" lengthAdjust="spacing" textLength="196" x="979" y="366.7751">config/petereport_config</text><text fill="#000000" font-family="sans-serif" font-size="14" lengthAdjust="spacing" textLength="4" x="979" y="383.072">&#160;</text><text fill="#000000" font-family="sans-serif" font-size="14" lengthAdjust="spacing" textLength="4" x="979" y="399.3689">&#160;</text></g><!--link 12166bdcbdfd691a1b2fe2ab2221deb5 to cda11f564f15e021dd74685bba6657d5--><g id="link_12166bdcbdfd691a1b2fe2ab2221deb5_cda11f564f15e021dd74685bba6657d5"><path codeLine="78" d="M855,120.16 C855,142.93 855,165.62 855,188.42 " fill="none" id="12166bdcbdfd691a1b2fe2ab2221deb5-to-cda11f564f15e021dd74685bba6657d5" style="stroke:#181818;stroke-width:1.0;"/><polygon fill="#181818" points="855,194.42,859,185.42,855,189.42,851,185.42,855,194.42" style="stroke:#181818;stroke-width:1.0;"/></g><!--link f42889983198cedaf167f2ad3d0df53f to 622a8a85fd4edeb835f98d94f2df2621--><g id="link_f42889983198cedaf167f2ad3d0df53f_622a8a85fd4edeb835f98d94f2df2621"><path codeLine="79" d="M89.4,411.75 C101.47,421.08 115.15,430.24 129,436.67 C227.64,482.5 349.4489,500.0017 418.1589,506.7717 " fill="none" id="f42889983198cedaf167f2ad3d0df53f-to-622a8a85fd4edeb835f98d94f2df2621" style="stroke:#181818;stroke-width:1.0;"/><polygon fill="#181818" points="424.13,507.36,415.5656,502.4968,419.1541,506.8697,414.7812,510.4582,424.13,507.36" style="stroke:#181818;stroke-width:1.0;"/></g><!--link bed2f1a49b2cdd5125bb7106e00690f7 to 3dd438b6fa15642947cf714f8dc45511--><g id="link_bed2f1a49b2cdd5125bb7106e00690f7_3dd438b6fa15642947cf714f8dc45511"><path codeLine="80" d="M1082,274.19 C1082,292.85 1082,309.13 1082,327.74 " fill="none" id="bed2f1a49b2cdd5125bb7106e00690f7-to-3dd438b6fa15642947cf714f8dc45511" style="stroke:#181818;stroke-width:1.0;"/><polygon fill="#181818" points="1082,333.74,1086,324.74,1082,328.74,1078,324.74,1082,333.74" style="stroke:#181818;stroke-width:1.0;"/></g><!--link c6ded3bc2125d83db5f905ca1e72b22b to 622a8a85fd4edeb835f98d94f2df2621--><g id="link_c6ded3bc2125d83db5f905ca1e72b22b_622a8a85fd4edeb835f98d94f2df2621"><path codeLine="81" d="M709.23,412.92 C700.74,421.58 691.1,430.13 681,436.67 C631.26,468.87 571.6068,487.8486 527.5268,498.9986 " fill="none" id="c6ded3bc2125d83db5f905ca1e72b22b-to-622a8a85fd4edeb835f98d94f2df2621" style="stroke:#181818;stroke-width:1.0;"/><polygon fill="#181818" points="521.71,500.47,531.4161,502.1408,526.5573,499.2439,529.4543,494.3851,521.71,500.47" style="stroke:#181818;stroke-width:1.0;"/></g><!--link cda11f564f15e021dd74685bba6657d5 to c6ded3bc2125d83db5f905ca1e72b22b--><g id="link_cda11f564f15e021dd74685bba6657d5_c6ded3bc2125d83db5f905ca1e72b22b"><path codeLine="82" d="M815.96,274.08 C810.81,279.58 805.69,285.25 801,290.78 C789.52,304.3 781.2809,314.9817 771.2509,328.8217 " fill="none" id="cda11f564f15e021dd74685bba6657d5-to-c6ded3bc2125d83db5f905ca1e72b22b" style="stroke:#181818;stroke-width:1.0;"/><polygon fill="#181818" points="767.73,333.68,776.2502,328.7398,770.6641,329.6314,769.7724,324.0452,767.73,333.68" style="stroke:#181818;stroke-width:1.0;"/></g><!--link cda11f564f15e021dd74685bba6657d5 to 622a8a85fd4edeb835f98d94f2df2621--><g id="link_cda11f564f15e021dd74685bba6657d5_622a8a85fd4edeb835f98d94f2df2621"><path codeLine="83" d="M898.46,272.84 C902.72,278.41 906.42,284.43 909,290.78 C933.42,350.85 950.81,387.11 909,436.67 C859.85,494.92 630.7879,507.44 527.6679,510.19 " fill="none" id="cda11f564f15e021dd74685bba6657d5-to-622a8a85fd4edeb835f98d94f2df2621" style="stroke:#181818;stroke-width:1.0;"/><polygon fill="#181818" points="521.67,510.35,530.7734,514.1087,526.6682,510.2167,530.5602,506.1115,521.67,510.35" style="stroke:#181818;stroke-width:1.0;"/></g><!--link cda11f564f15e021dd74685bba6657d5 to b4b9aae9cf5e71ea57afdd1f9bcd79bc--><g id="link_cda11f564f15e021dd74685bba6657d5_b4b9aae9cf5e71ea57afdd1f9bcd79bc"><path codeLine="84" d="M811.82,243.07 C775.05,251.02 721.86,265.82 681,290.78 C662.62,302.01 649.3928,313.8349 635.5528,328.8749 " fill="none" id="cda11f564f15e021dd74685bba6657d5-to-b4b9aae9cf5e71ea57afdd1f9bcd79bc" style="stroke:#181818;stroke-width:1.0;"/><polygon fill="#181818" points="631.49,333.29,640.5277,329.3759,634.8757,329.6107,634.6409,323.9588,631.49,333.29" style="stroke:#181818;stroke-width:1.0;"/></g><!--link cda11f564f15e021dd74685bba6657d5 to e75fc091a55c8b049be8953eb3b7ab7a--><g id="link_cda11f564f15e021dd74685bba6657d5_e75fc091a55c8b049be8953eb3b7ab7a"><path codeLine="85" d="M855,274.19 C855,292.85 855,309.13 855,327.74 " fill="none" id="cda11f564f15e021dd74685bba6657d5-to-e75fc091a55c8b049be8953eb3b7ab7a" style="stroke:#181818;stroke-width:1.0;"/><polygon fill="#181818" points="855,333.74,859,324.74,855,328.74,851,324.74,855,333.74" style="stroke:#181818;stroke-width:1.0;"/></g><!--link cda11f564f15e021dd74685bba6657d5 to 3dd438b6fa15642947cf714f8dc45511--><g id="link_cda11f564f15e021dd74685bba6657d5_3dd438b6fa15642947cf714f8dc45511"><path codeLine="86" d="M898.5,261.57 C932.23,281.91 974.3518,307.3117 1012.4618,330.2917 " fill="none" id="cda11f564f15e021dd74685bba6657d5-to-3dd438b6fa15642947cf714f8dc45511" style="stroke:#181818;stroke-width:1.0;"/><polygon fill="#181818" points="1017.6,333.39,1011.9583,325.3172,1013.3182,330.8081,1007.8272,332.168,1017.6,333.39" style="stroke:#181818;stroke-width:1.0;"/></g><!--link 245476243ce2d7b3c61801c5449c0365 to 622a8a85fd4edeb835f98d94f2df2621--><g id="link_245476243ce2d7b3c61801c5449c0365_622a8a85fd4edeb835f98d94f2df2621"><path codeLine="87" d="M241.22,413.09 C250.32,421.65 260.52,430.11 271,436.67 C319.31,466.91 375.9657,485.9456 418.5557,497.6856 " fill="none" id="245476243ce2d7b3c61801c5449c0365-to-622a8a85fd4edeb835f98d94f2df2621" style="stroke:#181818;stroke-width:1.0;"/><polygon fill="#181818" points="424.34,499.28,416.7266,493.0322,419.5198,497.9513,414.6006,500.7445,424.34,499.28" style="stroke:#181818;stroke-width:1.0;"/></g><!--SRC=[hLJRQjj047tNLvWy6aBsDdjvwO-K4cRd4anjozXAKoZvzmvMYfCu83yKX605v-pCkGYts_5bj_czsJyD1wIV-2IhkuDCSfJ3U9mUxbPuMY57XmrILC36ljTEFYHin5LxLbxz6MZS7SQzxAUL3pxdpjHPEJUFlWULW3s4u5awhBuFw_NpSNjQhuTX-36yliDg2hMsLgDlbOHHVIuQx7fsh13rZAMjuFuDV85suQ0UK-k1cC47wBrubyMvt9oM6JhkTVFqS9hmE3qVhZWYSuhLDa8FEOMM2cdnIIjJ0l3-FST5eyVvonlRHSJt2XQdhP0hlNHFBkS0GH2vIB8ZgdvGiAVU4AMHWXGl20MLsMlhnCLUvp5OQ3pYD1vFLsjGPk7OAPW8N2DtqEQ0q4i9PaC_utKyxgwXDcLbbrqEDb-FFRVMdNFG6hGk4Z-RTq5A0ILdVWDGxSvyaDeWYf4Kj6T6JfileCJelPhYwa6SfOHBojNymvoXy9oONnjvkOO6SHeuUOs9eEJKKyPgPf6j7ntDjqvocgwXfIMCpKAIYXBPg1PGnDp83jNZh38U3jT84mShLb1EOeckqVIjt99DeY67EIQxaUMBNHk48gJMXGg1KgbOC1X5pboJKfjlvTrc_pbFa-mEMvnamgVJ72ghdwa50XARDQTqDXBhQMviApdy4AgG89KSKYG9N7gaxAlp12arSZ73ltKVTRErP5_Q-JeiDlgUxxyjkZWibljCioJki5ZqCyrIbOV5ajmspM9sPsqMBhkHvZzDi_H_kP5cgV4tqYmwjPZScxJv2m00]--></g></svg>